<svg width="100" height="28" viewBox="0 0 100 28" fill="none" xmlns="http://www.w3.org/2000/svg">
<path d="M8.74375 5.5625C8.74375 4.9375 8.16875 3.8125 7.625 3.8125C7.08125 3.8125 6.50625 4.9375 6.50625 5.5625C6.50625 6.1875 7.08125 7.3125 7.625 7.3125C8.16875 7.3125 8.74375 6.1875 8.74375 5.5625Z" fill="#007BFF"/>
<path d="M22.5 15.125C22.5 14.5 21.925 13.375 21.3812 13.375C20.8375 13.375 20.2625 14.5 20.2625 15.125C20.2625 15.75 20.8375 16.875 21.3812 16.875C21.925 16.875 22.5 15.75 22.5 15.125Z" fill="#007BFF"/>
<path d="M2.375 21.9375C2.375 21.3125 1.70625 20.1875 1.04375 20.1875C0.38125 20.1875 -0.2875 21.3125 -0.2875 21.9375C-0.2875 22.5625 0.38125 23.6875 1.04375 23.6875C1.70625 23.6875 2.375 22.5625 2.375 21.9375Z" fill="#007BFF"/>
<path d="M25.6688 5.4375C25.6688 4.8125 25.0938 3.6875 24.55 3.6875C24.0063 3.6875 23.4313 4.8125 23.4313 5.4375C23.4313 6.0625 24.0063 7.1875 24.55 7.1875C25.0938 7.1875 25.6688 6.0625 25.6688 5.4375Z" fill="#007BFF"/>
<path d="M34.3312 21.9375C34.3312 21.3125 33.6625 20.1875 33 20.1875C32.3375 20.1875 31.6687 21.3125 31.6687 21.9375C31.6687 22.5625 32.3375 23.6875 33 23.6875C33.6625 23.6875 34.3312 22.5625 34.3312 21.9375Z" fill="#007BFF"/>
<path d="M15.4688 2.125C15.4688 1.5 14.8938 0.375 14.35 0.375C13.8063 0.375 13.2313 1.5 13.2313 2.125C13.2313 2.75 13.8063 3.875 14.35 3.875C14.8938 3.875 15.4688 2.75 15.4688 2.125Z" fill="#007BFF"/>
<path d="M15.3438 25.4375C15.3438 24.8125 14.7687 23.6875 14.225 23.6875C13.6812 23.6875 13.1063 24.8125 13.1063 25.4375C13.1063 26.0625 13.6812 27.1875 14.225 27.1875C14.7687 27.1875 15.3438 26.0625 15.3438 25.4375Z" fill="#007BFF"/>
<path d="M3.58125 12C3.58125 11.375 3.00625 10.25 2.4625 10.25C1.91875 10.25 1.34375 11.375 1.34375 12C1.34375 12.625 1.91875 13.75 2.4625 13.75C3.00625 13.75 3.58125 12.625 3.58125 12Z" fill="#007BFF"/>
<path d="M32.8313 12C32.8313 11.375 32.2563 10.25 31.7125 10.25C31.1687 10.25 30.5938 11.375 30.5938 12C30.5938 12.625 31.1687 13.75 31.7125 13.75C32.2563 13.75 32.8313 12.625 32.8313 12Z" fill="#007BFF"/>
<path d="M43.9313 11.0625C44.5188 11.0625 45.0312 10.5813 45.0312 10C45.0312 9.41875 44.5188 8.9375 43.9313 8.9375H40.0563C39.4688 8.9375 38.9563 9.41875 38.9563 10C38.9563 10.5813 39.4688 11.0625 40.0563 11.0625H41.4938V18H40.0563C39.4688 18 38.9563 18.4812 38.9563 19.0625C38.9563 19.6438 39.4688 20.125 40.0563 20.125H43.9313C44.5188 20.125 45.0312 19.6438 45.0312 19.0625V10C45.0312 9.41875 44.5188 8.9375 43.9313 8.9375C43.3438 8.9375 42.8313 9.41875 42.8313 10V11.0625H43.9313Z" fill="#007BFF"/>
<path d="M51.1562 19.0625C51.1562 18.4812 50.6437 18 50.0562 18H48.6187V11.0625H50.0562C50.6437 11.0625 51.1562 10.5813 51.1562 10C51.1562 9.41875 50.6437 8.9375 50.0562 8.9375H46.1812C45.5937 8.9375 45.0812 9.41875 45.0812 10C45.0812 10.5813 45.5937 11.0625 46.1812 11.0625H47.5187V18H46.1812C45.5937 18 45.0812 18.4812 45.0812 19.0625C45.0812 19.6438 45.5937 20.125 46.1812 20.125H50.0562C50.6437 20.125 51.1562 19.6438 51.1562 19.0625Z" fill="#007BFF"/>
<path d="M59.3312 14.1875H54.0812C53.4937 14.1875 52.9812 14.6687 52.9812 15.25C52.9812 15.8313 53.4937 16.3125 54.0812 16.3125H59.3312C59.9187 16.3125 60.4312 15.8313 60.4312 15.25C60.4312 14.6687 59.9187 14.1875 59.3312 14.1875Z" fill="#007BFF"/>
<path d="M68.5813 8.9375C67.9938 8.9375 67.4813 9.41875 67.4813 10V19.0625C67.4813 19.6438 67.9938 20.125 68.5813 20.125C69.1688 20.125 69.6813 19.6438 69.6813 19.0625V10C69.6813 9.41875 69.1688 8.9375 68.5813 8.9375Z" fill="#007BFF"/>
<path d="M77.1812 14.1875H71.9312C71.3437 14.1875 70.8312 14.6687 70.8312 15.25C70.8312 15.8313 71.3437 16.3125 71.9312 16.3125H77.1812C77.7687 16.3125 78.2812 15.8313 78.2812 15.25C78.2812 14.6687 77.7687 14.1875 77.1812 14.1875Z" fill="#007BFF"/>
<path d="M78.4062 10C78.4062 9.41875 77.8937 8.9375 77.3062 8.9375H73.4312C72.8437 8.9375 72.3312 9.41875 72.3312 10C72.3312 10.5813 72.8437 11.0625 73.4312 11.0625H74.8687V18H73.4312C72.8437 18 72.3312 18.4812 72.3312 19.0625C72.3312 19.6438 72.8437 20.125 73.4312 20.125H77.3062C77.8937 20.125 78.4062 19.6438 78.4062 19.0625V10Z" fill="#00C6FF"/>
<path d="M86.6562 19.0625C86.6562 18.4812 86.1437 18 85.5562 18H84.1187V11.0625H85.5562C86.1437 11.0625 86.6562 10.5813 86.6562 10C86.6562 9.41875 86.1437 8.9375 85.5562 8.9375H81.6812C81.0937 8.9375 80.5812 9.41875 80.5812 10C80.5812 10.5813 81.0937 11.0625 81.6812 11.0625H83.0187V18H81.6812C81.0937 18 80.5812 18.4812 80.5812 19.0625C80.5812 19.6438 81.0937 20.125 81.6812 20.125H85.5562C86.1437 20.125 86.6562 19.6438 86.6562 19.0625Z" fill="#00C6FF"/>
<path d="M94.8312 14.1875H89.5812C88.9937 14.1875 88.4812 14.6687 88.4812 15.25C88.4812 15.8313 88.9937 16.3125 89.5812 16.3125H94.8312C95.4187 16.3125 95.9312 15.8313 95.9312 15.25C95.9312 14.6687 95.4187 14.1875 94.8312 14.1875Z" fill="#00C6FF"/>
</svg>
